<?xml version="1.0" encoding="UTF-8" standalone="no"?>
<!-- Created with Inkscape (http://www.inkscape.org/) -->

<svg
   width="1000"
   height="1000"
   viewBox="0 0 264.58333 264.58333"
   version="1.1"
   id="svg1"
   xml:space="preserve"
   inkscape:version="1.3.2 (091e20e, 2023-11-25, custom)"
   sodipodi:docname="ig.svg"
   xmlns:inkscape="http://www.inkscape.org/namespaces/inkscape"
   xmlns:sodipodi="http://sodipodi.sourceforge.net/DTD/sodipodi-0.dtd"
   xmlns="http://www.w3.org/2000/svg"
   xmlns:svg="http://www.w3.org/2000/svg"><sodipodi:namedview
     id="namedview1"
     pagecolor="#ffffff"
     bordercolor="#000000"
     borderopacity="0.25"
     inkscape:showpageshadow="2"
     inkscape:pageopacity="0.0"
     inkscape:pagecheckerboard="0"
     inkscape:deskcolor="#d1d1d1"
     inkscape:document-units="mm"
     inkscape:zoom="0.36213173"
     inkscape:cx="-46.944243"
     inkscape:cy="539.85879"
     inkscape:window-width="1920"
     inkscape:window-height="1009"
     inkscape:window-x="-8"
     inkscape:window-y="-8"
     inkscape:window-maximized="1"
     inkscape:current-layer="layer1" /><defs
     id="defs1" /><g
     inkscape:label="Camada 1"
     inkscape:groupmode="layer"
     id="layer1"><path
       style="fill:#014073;fill-opacity:1"
       d="m 58.212533,264.50736 c -0.067,-0.067 -1.65074,-0.29923 -3.51932,-0.51595 -1.86857,-0.21671 -4.42704,-0.58902 -5.68547,-0.82735 -1.25844,-0.23833 -2.85386,-0.51812 -3.54539,-0.62176 -2.20492,-0.33043 -8.6656,-2.30506 -11.79941,-3.60635 -2.88775,-1.19912 -7.45817,-3.55372 -9.12676,-4.70196 -0.84104,-0.57876 -1.97004,-1.35512 -2.50889,-1.72524 -3.39762,-2.33375 -8.91718,-7.72248 -10.39173,-10.14541 -0.19093,-0.31374 -0.44336,-0.62989 -0.56095,-0.70256 -0.28051,-0.17337 -1.3847498,-1.81542 -1.8999798,-2.82534 -0.22388,-0.43885 -0.6804,-1.2034 -1.01448,-1.69899 -1.62069,-2.40424 -4.72658,-10.01394 -5.54651,-13.58944 -0.86647,-3.77845 -1.34642,-6.31734 -1.65149,-8.73624 -0.18758,-1.48724 -0.43253,-3.03168 -0.54435,-3.43209 -0.13128,-0.4701 -0.17881,-27.44163 -0.13415,-76.13013 l 0.0692,-75.402089 0.46168,-3.328093 c 0.40348,-2.908578 0.68333,-4.517376 1.71864,-9.880274 0.12147,-0.629217 0.44069,-1.846051 0.70938,-2.704075 0.26869,-0.858024 0.74436,-2.402467 1.05705,-3.432095 1.27508,-4.198558 4.36699,-10.944216 6.4842998,-14.146874 0.4529,-0.685054 0.94501,-1.475595 1.09359,-1.756758 0.28964,-0.548119 1.47371,-2.108743 3.87321,-5.104951 1.57116,-1.961887 4.03614,-4.438671 6.32033,-6.350614 0.74362,-0.622434 1.46047,-1.226628 1.593,-1.342652 0.13253,-0.116025 0.88135,-0.66148 1.66404,-1.212123 7.34555,-5.1677374 14.51201,-8.0032994 24.40773,-9.65744243 l 3.43209,-0.5737 81.122257,0.0073 81.12225,0.0073 2.49607,0.53658 c 5.41919,1.16496303 11.18012,3.15664203 13.83238,4.78215603 0.51482,0.315519 1.31582,0.75241 1.78001,0.970868 1.26692,0.596237 4.71895,2.93728 7.02515,4.7641984 2.30007,1.822059 7.07177,6.487732 8.2515,8.068159 0.42699,0.572016 0.97906,1.221075 1.22682,1.442355 0.24776,0.221279 0.64955,0.736093 0.89287,1.144031 0.24332,0.407939 0.64519,0.975713 0.89303,1.261721 1.03868,1.198632 3.30647,4.994003 5.28217,8.840244 1.83582,3.573945 4.2523,10.136706 5.09322,13.832384 0.88493,3.889057 1.20545,5.572273 1.58434,8.320232 0.22873,1.658846 0.517,3.718103 0.6406,4.576127 0.15872,1.10184 0.20364,23.431615 0.15293,76.026105 l -0.0718,74.46607 -0.46355,2.77213 c -0.43555,2.60469 -0.6318,3.596 -1.39687,7.05614 -0.90452,4.0908 -2.83167,9.2229 -5.17466,13.78039 -0.76577,1.48953 -3.18123,5.56674 -3.66761,6.19077 -0.24409,0.31318 -0.94032,1.24851 -1.54716,2.07852 -0.60685,0.83001 -1.55991,2.04671 -2.11793,2.70378 -1.65513,1.94891 -6.19063,6.43735 -7.49744,7.41965 -0.66734,0.50162 -1.91259,1.44668 -2.76722,2.10012 -0.85464,0.65344 -1.83746,1.34229 -2.18406,1.53077 -0.34661,0.18849 -1.28541,0.76899 -2.08623,1.29 -1.86672,1.2145 -6.23608,3.40143 -8.10671,4.05754 -0.79779,0.27982 -2.15503,0.78219 -3.01609,1.11638 -1.71942,0.66733 -5.70374,1.6469 -9.26177,2.27706 -1.25843,0.22288 -2.66247,0.47435 -3.12008,0.55882 -0.97881,0.18068 -153.692357,0.35204 -153.871737,0.17268 z M 213.2283,253.03013 c 3.05828,-0.50766 6.12548,-1.29657 9.04825,-2.32732 3.4549,-1.2184 9.98416,-4.71078 11.64832,-6.23047 0.34321,-0.31341 0.89291,-0.73678 1.22155,-0.94083 1.98991,-1.23545 7.00226,-6.56301 9.3435,-9.93108 2.2161,-3.18804 5.1747,-8.95406 5.95898,-11.61346 0.15182,-0.51481 0.44843,-1.4248 0.65914,-2.0222 1.16053,-3.29035 1.95805,-7.73912 2.26634,-12.64221 0.31075,-4.94215 0.27016,-112.488806 -0.0426,-112.801537 -0.31669,-0.316689 -61.6387,-0.367505 -61.83416,-0.05124 -0.0674,0.109102 0.52898,1.551462 1.32536,3.205245 2.48529,5.161042 4.70507,12.039072 5.4132,16.772952 0.11123,0.74362 0.34158,2.19446 0.51187,3.22408 0.17029,1.02963 0.41579,3.5101 0.54555,5.51216 0.19684,3.03706 0.18113,4.29483 -0.0948,7.59221 -0.18189,2.17366 -0.41331,4.42012 -0.51427,4.99214 -0.10096,0.57201 -0.32653,1.88245 -0.50128,2.91208 -0.50456,2.97293 -1.2543,6.04736 -2.00365,8.21624 -1.55863,4.51125 -1.92867,5.41636 -3.82674,9.36026 -2.19942,4.57004 -6.59341,11.04975 -10.07787,14.86156 -4.53745,4.96374 -10.46247,9.89794 -14.808,12.33171 -0.74362,0.41647 -1.63285,0.96223 -1.97606,1.2128 -0.9259,0.67597 -6.57205,3.35238 -8.84024,4.19049 -8.91479,3.29406 -15.31829,4.47715 -24.23268,4.47715 -6.1035,0 -10.87593,-0.55264 -15.91244,-1.84264 -4.59351,-1.17653 -9.39592,-2.87934 -12.48034,-4.4252 -1.08683,-0.5447 -2.30367,-1.11524 -2.70408,-1.26788 -0.40041,-0.15263 -1.16146,-0.58157 -1.691227,-0.95319 -0.52977,-0.37163 -1.27859,-0.83523 -1.66405,-1.03024 -0.99155,-0.50162 -4.03791,-2.51798 -5.31489,-3.51787 -0.59288,-0.46423 -1.71142,-1.31206 -2.48565,-1.88408 -1.96948,-1.45509 -7.74713,-7.28526 -9.79982,-9.88889 -3.29037,-4.17351 -3.52332,-4.51858 -6.38339,-9.45565 -1.0887,-1.87932 -1.31855,-2.33507 -2.72755,-5.40815 -2.05284,-4.47728 -4.12194,-11.22622 -4.67186,-15.23854 -0.09,-0.65666 -0.30969,-2.03635 -0.4882,-3.06597 -0.84319,-4.8634 -0.8466,-12.64839 -0.008,-17.6805 0.17163,-1.02962 0.40558,-2.52727 0.51987,-3.32809 0.1143,-0.80082 0.33778,-1.97085 0.49663,-2.60007 0.15884,-0.62922 0.48826,-1.92448 0.73203,-2.87835 0.74731,-2.92423 2.67732,-8.09509 4.19509,-11.239426 0.79366,-1.644207 1.39353,-3.118448 1.33303,-3.276091 -0.0927,-0.241704 -4.92894,-0.286623 -30.85977,-0.286623 -23.63915,0 -30.8075,0.05772 -30.99938,0.249607 -0.19292,0.192915 -0.24821,12.771613 -0.24345,55.381543 0.006,52.94984 0.0799,60.52904 0.62606,64.11718 0.66229,4.35115 0.84062,5.23412 1.55585,7.70341 1.19107,4.11212 2.90667,8.15056 4.56136,10.73727 0.40633,0.63519 0.73878,1.20492 0.73878,1.26608 0,0.28721 3.41545,4.5595 4.69636,5.87456 2.70868,2.78087 6.3955,5.45658 10.48806,7.61167 2.20204,1.15957 7.71993,3.37777 8.98772,3.61308 0.3765,0.0699 1.62057,0.38432 2.7646,0.69876 4.26762,1.17297 8.76929,1.79375 14.97642,2.06526 2.05926,0.0901 36.59862,0.15267 76.754127,0.1391 l 73.01003,-0.0247 z m -76.02611,-70.76437 c 4.13743,-0.35589 11.07058,-1.84218 13.46899,-2.8874 0.48587,-0.21174 1.39822,-0.55154 2.02744,-0.7551 2.67097,-0.86411 9.34301,-4.47706 12.29518,-6.65791 5.65671,-4.17878 10.96131,-9.72808 14.22019,-14.87618 0.32589,-0.51482 0.84782,-1.31126 1.15985,-1.76987 0.78364,-1.15176 3.54956,-6.87063 4.44746,-9.19565 0.64601,-1.67278 1.24591,-3.66437 2.30462,-7.65101 0.75902,-2.85815 1.03783,-6.16269 1.02665,-12.16834 -0.009,-5.01967 -0.0796,-6.3585 -0.45827,-8.73624 -0.52907,-3.32188 -2.44674,-10.3225 -2.98854,-10.9099 -0.10024,-0.10868 -0.18226,-0.31724 -0.18226,-0.46345 0,-0.60975 -3.05955,-6.844161 -4.3202,-8.803207 -1.75251,-2.723405 -2.59872,-3.977122 -2.86232,-4.240724 -0.15507,-0.155074 -0.52545,-0.640767 -0.82306,-1.079317 -0.69373,-1.022267 -4.51735,-5.156883 -6.31421,-6.827789 -0.76156,-0.708168 -2.13347,-1.86378 -3.04869,-2.568029 -0.91523,-0.704248 -1.99166,-1.548422 -2.39207,-1.875941 -0.40041,-0.327519 -1.52364,-1.049626 -2.49607,-1.60468 -0.97242,-0.555055 -1.95525,-1.162847 -2.18406,-1.350648 -0.69809,-0.572988 -6.08988,-3.060871 -8.73624,-4.031081 -1.37284,-0.503312 -3.33849,-1.117091 -4.36812,-1.363954 -1.02963,-0.246863 -2.24646,-0.537911 -2.70408,-0.646773 -4.20304,-0.999867 -5.50051,-1.124886 -11.75232,-1.132416 -5.54356,-0.0067 -6.38728,0.03906 -8.73624,0.473608 -1.43004,0.264549 -2.92769,0.566576 -3.3281,0.671171 -0.40041,0.104596 -1.55791,0.388341 -2.57222,0.630545 -1.82986,0.436947 -2.43782,0.633475 -5.64401,1.82447 -2.15112,0.799072 -7.25721,3.269369 -7.59227,3.6731 -0.14239,0.17156 -0.33415,0.311927 -0.42615,0.311927 -0.26747,0 -3.5786,2.068374 -4.14991,2.592337 -0.286007,0.262305 -0.719877,0.579502 -0.964157,0.704883 -0.65055,0.333907 -3.01879,2.308392 -4.84122,4.036301 -1.78936,1.696548 -5.84118,6.088223 -5.84627,6.336631 -0.002,0.08923 -0.29207,0.489841 -0.64499,0.890252 -1.12356,1.274755 -3.69113,5.345772 -4.95876,7.862364 -1.47354,2.9254 -2.50515,5.15522 -2.50515,5.41489 0,0.10463 -0.18386,0.60588 -0.40858,1.11389 -0.89773,2.02948 -2.32904,7.61097 -2.84378,11.08956 -0.4862,3.28574 -0.51628,3.93372 -0.42495,9.15226 0.10945,6.25299 0.42359,8.8246 1.58812,13.00037 0.91314,3.27433 1.68867,5.68093 1.90701,5.91776 0.1002,0.10868 0.18218,0.32319 0.18218,0.47669 0,0.71365 2.89042,6.43898 4.80964,9.52692 2.85875,4.59958 8.30045,10.70775 12.12897,13.61445 2.753047,2.09019 4.072237,3.04262 4.899157,3.53709 0.4783,0.28601 1.34381,0.82731 1.92336,1.20289 1.56283,1.0128 6.13515,3.24555 7.77502,3.7967 0.78802,0.26484 1.8303,0.65267 2.31617,0.86184 2.41898,1.04135 9.31812,2.52086 13.36499,2.86609 2.39846,0.2046 7.38719,0.21318 9.67227,0.0166 z m -6.9682,-13.66678 c -2.02813,-0.13814 -5.87706,-0.69607 -7.80021,-1.13072 -2.23947,-0.50612 -6.88114,-2.22075 -9.04825,-3.3424 -2.87568,-1.4884 -3.28715,-1.75171 -6.8353,-4.37416 -1.90985,-1.41158 -5.71177,-5.12334 -6.947717,-6.78296 -0.48476,-0.65094 -1.04598,-1.36586 -1.24713,-1.58871 -0.64736,-0.71717 -2.95304,-4.54559 -3.56541,-5.9201 -0.32661,-0.73312 -0.76263,-1.62235 -0.96891,-1.97605 -1.21911,-2.09037 -2.99688,-8.82012 -3.33458,-12.62304 -0.26263,-2.95752 -0.15093,-8.35319 0.22567,-10.90071 0.752,-5.08697 3.10991,-11.39165 5.93731,-15.87548 1.82193,-2.88931 5.173737,-6.886797 7.443347,-8.877208 1.87336,-1.642915 5.31509,-4.247173 5.93979,-4.494467 0.27235,-0.107813 0.75368,-0.380093 1.06963,-0.605066 2.10148,-1.496386 7.94282,-3.827487 11.64356,-4.646587 7.06154,-1.562961 12.93895,-1.535874 19.86455,0.09155 3.41187,0.801742 9.16634,3.162967 11.15314,4.576456 0.29967,0.213194 0.76768,0.479151 1.04003,0.591015 0.62632,0.257253 4.05217,2.848961 5.93127,4.487102 2.26101,1.97107 5.60555,5.954415 7.45733,8.881675 2.63327,4.16261 4.98125,10.35823 5.85705,15.455 0.44939,2.61523 0.51308,10.78103 0.10384,13.31237 -0.55241,3.41688 -2.19676,8.87781 -3.29596,10.94598 -0.32692,0.6151 -0.79944,1.58637 -1.05007,2.15839 -1.16385,2.65637 -4.51492,7.22548 -7.45882,10.16994 -7.85671,7.85818 -17.50936,12.05219 -28.68206,12.46214 -1.25844,0.0462 -2.80288,0.0489 -3.4321,0.006 z m 4.26412,-21.1844 c 1.69826,-0.1608 5.70731,-1.22946 6.76019,-1.80202 2.88026,-1.56628 5.07544,-3.12752 6.23703,-4.43583 3.59152,-4.04521 5.32611,-7.75032 5.81845,-12.42836 0.28603,-2.71778 0.004,-5.90657 -0.73466,-8.31218 -0.58035,-1.88952 -2.44804,-5.70561 -3.0835,-6.30022 -0.24452,-0.22881 -0.75312,-0.84691 -1.13023,-1.37355 -0.68785,-0.96062 -2.65409,-2.68345 -4.40301,-3.85796 -3.86594,-2.5962 -8.95988,-3.87226 -13.52038,-3.38694 -2.576,0.27414 -6.02896,1.32916 -8.22242,2.5123 -1.70875,0.92169 -5.37277,3.89934 -5.80634,4.71867 -0.16167,0.3055 -0.59349,0.87864 -0.95961,1.27365 -0.88557,0.95546 -2.73717,4.71974 -3.27892,6.66601 -2.01488,7.23853 -0.16657,14.67798 5.06448,20.38457 1.78933,1.95199 6.02306,4.70234 8.00267,5.19875 0.51481,0.1291 1.33,0.38068 1.81153,0.55908 0.9146,0.33884 4.8525,0.89331 5.57267,0.78466 0.22881,-0.0345 1.07123,-0.12481 1.87205,-0.20063 z M 85.448773,78.93099 c 2.16902,-2.145059 4.48587,-4.274518 5.14857,-4.732131 0.66269,-0.457613 1.54481,-1.114905 1.96026,-1.460649 0.41545,-0.345745 1.59779,-1.181544 2.62742,-1.857332 1.02963,-0.675788 2.12567,-1.399134 2.43564,-1.607436 0.30998,-0.208301 0.62314,-0.37873 0.69592,-0.37873 0.0728,0 0.4103,-0.197944 0.75006,-0.439875 1.620067,-1.153588 8.464367,-4.236216 12.342827,-5.559127 3.05741,-1.042856 7.76524,-2.133623 11.45054,-2.652996 3.45881,-0.487455 4.63015,-0.556795 9.55804,-0.565811 5.07708,-0.0093 5.99395,0.04488 9.55202,0.564344 3.44984,0.503659 10.24859,2.093032 11.99623,2.804406 0.2752,0.112021 1.6236,0.641821 2.99644,1.177334 2.64697,1.032524 7.77272,3.49557 8.80673,4.23185 0.33976,0.241931 0.67729,0.439875 0.75006,0.439875 0.0728,0 0.38594,0.174596 0.69591,0.387992 1.09929,0.756776 2.99901,2.009919 3.66877,2.420086 0.37362,0.228806 1.01631,0.696819 1.42819,1.040029 0.41188,0.343209 1.13661,0.904825 1.61052,1.248034 1.14307,0.827829 5.4435,4.748876 6.75247,6.156773 0.57202,0.615246 1.33419,1.377986 1.69371,1.694979 l 0.65368,0.576351 35.1112,-2.2e-4 c 21.57853,-1.35e-4 35.18639,-0.07541 35.30628,-0.195296 0.11933,-0.119333 0.15257,-4.541889 0.0856,-11.390031 -0.0841,-8.602947 -0.18843,-11.821038 -0.45056,-13.899029 -0.50358,-3.99201 -1.22187,-7.50247 -2.10676,-10.296286 -0.16306,-0.514814 -0.48205,-1.570453 -0.70888,-2.345863 -0.22682,-0.775411 -0.70095,-2.085847 -1.05362,-2.912081 -0.35267,-0.826234 -0.71186,-1.689449 -0.79819,-1.918255 -0.15428,-0.408917 -0.47152,-1.052596 -2.15286,-4.368121 -0.46412,-0.915226 -1.14296,-2.085258 -1.50853,-2.600072 -0.36558,-0.514815 -1.00321,-1.502444 -1.41697,-2.194732 -0.41376,-0.692289 -0.95742,-1.441109 -1.20814,-1.664047 -0.25071,-0.222937 -0.62431,-0.678756 -0.83023,-1.012932 -0.6102,-0.990255 -3.46241,-3.988939 -5.83154,-6.131012 -2.3392,-2.115012 -4.92233,-4.043782 -6.44173,-4.809905 -0.50443,-0.254349 -1.43196,-0.773488 -2.06118,-1.153643 -2.27896,-1.376878 -6.77891,-2.971337 -10.36138,-3.671322 l -2.43098,-0.474993 H 143.90289 73.641463 l 0.007,27.560765 c 0.007,29.554705 0.0346,28.747144 -1.02523,30.461949 -0.58051,0.939287 -2.07824,1.944288 -3.32713,2.232568 -2.21352,0.510942 -4.55863,-0.561087 -5.83186,-2.665944 l -0.72802,-1.203537 -0.05,-28.192901 -0.05,-28.1929 -2.23802,-0.05494 c -1.23091,-0.03022 -2.92101,0.01658 -3.75578,0.104003 l -1.51775,0.158943 0.0141,27.167426 c 0.0117,22.411156 -0.0361,27.382973 -0.27308,28.398615 -0.47615,2.041097 -1.1119,2.968051 -2.65058,3.864693 -2.13414,1.243639 -4.62845,0.905944 -6.401,-0.866607 -1.8287,-1.828695 -1.69436,0.525674 -1.69436,-29.694906 0,-23.469658 -0.0375,-26.71261 -0.31018,-26.817241 -0.42282,-0.162253 -2.03782,0.391717 -4.88997,1.677333 l -2.39206,1.078234 -0.10972,25.573003 c -0.0603,14.065152 -0.19289,25.80701 -0.29455,26.093018 -1.1594,3.26174 -5.13296,4.712241 -7.89575,2.882246 -1.12914,-0.747914 -2.15489,-1.9859 -2.42635,-2.928392 -0.11723,-0.407013 -0.19794,-9.083777 -0.20024,-21.525311 -0.003,-14.533138 -0.071,-20.884941 -0.22566,-20.980532 -0.38909,-0.240467 -2.32137,2.228585 -5.38351,6.878999 -1.46781,2.22913 -4.12961,8.223092 -5.21897,11.752326 -0.33547,1.08683 -0.74139,2.397266 -0.90205,2.912081 -1.94757,6.240674 -2.68945,14.237244 -2.57627,27.76877 l 0.0644,7.696214 35.04897,0.10491 c 19.27693,0.0577 35.05988,0.127902 35.0732,0.156004 0.0133,0.0281 1.79888,-1.703954 3.9679,-3.849014 z M 195.65181,67.932798 c -2.82585,-0.622521 -4.50927,-1.535247 -6.44818,-3.496127 -1.02665,-1.038282 -1.67883,-1.932242 -2.21152,-3.031374 -1.32377,-2.731445 -1.32458,-2.740304 -1.32458,-14.455194 0,-9.69865 0.0327,-10.714246 0.38133,-11.843906 1.34973,-4.373521 4.21774,-7.285527 8.53802,-8.668996 1.134,-0.363138 2.02181,-0.391678 12.1839,-0.391678 h 10.96078 l 1.44047,0.490478 c 2.20577,0.751062 3.55841,1.565106 5.0607,3.04562 1.62493,1.601391 2.81441,3.710533 3.24882,5.760722 0.41823,1.973815 0.43179,21.567158 0.0163,23.50341 -0.66758,3.110734 -3.00211,6.153814 -5.99317,7.812152 -2.37602,1.317343 -1.92094,1.274964 -14.20452,1.322798 -6.17777,0.02406 -11.41951,0.0025 -11.64832,-0.04791 z"
       id="path1" /></g></svg>
