<?xml version="1.0" encoding="UTF-8" standalone="no"?>
<!-- Created with Inkscape (http://www.inkscape.org/) -->

<svg
   width="1000"
   height="1000"
   viewBox="0 0 264.58333 264.58333"
   version="1.1"
   id="svg1"
   xml:space="preserve"
   inkscape:version="1.3.2 (091e20e, 2023-11-25, custom)"
   sodipodi:docname="tel2.svg"
   xmlns:inkscape="http://www.inkscape.org/namespaces/inkscape"
   xmlns:sodipodi="http://sodipodi.sourceforge.net/DTD/sodipodi-0.dtd"
   xmlns="http://www.w3.org/2000/svg"
   xmlns:svg="http://www.w3.org/2000/svg"><sodipodi:namedview
     id="namedview1"
     pagecolor="#ffffff"
     bordercolor="#000000"
     borderopacity="0.25"
     inkscape:showpageshadow="2"
     inkscape:pageopacity="0.0"
     inkscape:pagecheckerboard="0"
     inkscape:deskcolor="#d1d1d1"
     inkscape:document-units="mm"
     inkscape:zoom="0.36213173"
     inkscape:cx="-46.944243"
     inkscape:cy="539.85879"
     inkscape:window-width="1920"
     inkscape:window-height="1009"
     inkscape:window-x="-8"
     inkscape:window-y="-8"
     inkscape:window-maximized="1"
     inkscape:current-layer="layer1" /><defs
     id="defs1" /><g
     inkscape:label="Camada 1"
     inkscape:groupmode="layer"
     id="layer1"><path
       style="fill:#014073;fill-opacity:1"
       d="m 125.16813,264.45176 c -20.64986,-1.32119 -38.661805,-6.48711 -56.492465,-16.20232 -10.85289,-5.91331 -20.39466,-13.12036 -29.77521,-22.48972 -5.49469,-5.48813 -9.5053,-10.14067 -13.62603,-15.80697 C -8.2463547,163.8592 -8.3849647,101.67201 24.929485,55.200716 c 7.50349,-10.46684 18.15982,-21.28005 28.68067,-29.10289 17.52999,-13.03454 38.20282,-21.5631501 59.813715,-24.6762701 7.16946,-1.03277999 10.25948,-1.22856999 19.16879,-1.21454999 9.41162,0.0148 13.35773,0.3164 21.32865,1.63010999 20.64546,3.40263 40.29036,11.7463601 57.1014,24.2525201 10.48664,7.80128 20.6816,18.10305 28.34822,28.64521 26.68891,36.699231 32.59628,84.170644 15.77234,126.745854 -1.99383,5.04565 -7.31302,15.56449 -10.20019,20.17116 -6.16742,9.84053 -12.61677,17.84715 -20.68804,25.68346 -22.55185,21.89533 -51.8543,34.88434 -83.51687,37.02086 -3.78055,0.2551 -12.26286,0.30717 -15.57004,0.0956 z m 12.5371,-17.64556 c 16.31294,-0.8555 30.75769,-4.55649 44.83428,-11.48731 11.85637,-5.83766 21.61895,-12.80534 30.78593,-21.97233 14.8721,-14.87209 25.35353,-33.44069 30.36931,-53.80136 2.20734,-8.9603 3.18045,-17.283 3.18045,-27.2014 0,-18.13299 -3.74911,-34.33919 -11.65811,-50.394336 -12.34222,-25.054508 -33.13782,-44.660298 -58.7522,-55.390718 -27.99965,-11.72966 -60.17885,-11.73444 -88.233585,-0.0131 -26.77095,11.18496 -48.57823,32.40133 -60.45941,58.821134 -6.81398,15.15204 -10.0065,30.13984 -10.0065,46.97704 0,18.52701 3.84081,34.79131 12.13493,51.38661 11.02795,22.06527 29.10919,40.05342 51.55278,51.28737 13.75373,6.88432 29.277985,10.96983 44.740935,11.77446 6.00749,0.31261 5.8208,0.31238 11.51119,0.014 z m 20.6708,-26.04328 c -2.43505,-0.66695 -3.70713,-1.20576 -5.51101,-2.33427 -15.30585,-9.57536 -40.41535,-37.70005 -58.054865,-65.02618 -11.48943,-17.79878 -23.57379,-41.85519 -30.21881,-60.156768 -2.20069,-6.061111 -2.82341,-9.009725 -2.66175,-12.603644 0.22828,-5.075302 2.07396,-10.713972 6.13539,-18.743972 2.525,-4.99227 4.15152,-7.29879 5.84814,-8.29308 1.06913,-0.62654 1.41385,-0.69154 3.04787,-0.57462 4.32205,0.30924 11.38972,5.05293 19.18876,12.87914 4.637815,4.65397 7.948255,8.54601 10.579095,12.437677 2.15926,3.194083 3.02877,4.98026 3.59666,7.388325 0.80913,3.43108 0.43706,6.744319 -1.25793,11.201649 -3.12434,8.216113 -0.71783,15.379113 11.30577,33.651733 13.06413,19.85395 24.99203,33.56622 32.10634,36.90931 2.74898,1.29177 4.4887,1.4247 9.79076,0.7481 5.54745,-0.70792 5.83739,-0.64759 7.97286,1.65898 3.34111,3.60879 7.42314,9.06085 9.89221,13.21227 6.02014,10.12207 10.40577,26.16878 8.37436,30.64116 -0.60221,1.32582 -2.47768,2.99094 -3.79286,3.36746 -3.94743,1.13009 -21.76383,4.08517 -24.26245,4.02424 -0.40074,-0.01 -1.33608,-0.18415 -2.07854,-0.38751 z m 36.85268,-11.03403 c 0,-0.35199 -0.24114,-2.02251 -0.53587,-3.71227 -2.74219,-15.72178 -9.19867,-28.8467 -19.40929,-39.45579 -1.25225,-1.30112 -2.22768,-2.41034 -2.16763,-2.46493 0.06,-0.0546 1.5985,-0.78578 3.41877,-1.62485 9.16977,-4.22688 13.03862,-4.47545 17.71535,-1.13821 4.75716,3.39464 9.9359,11.14637 13.50752,20.21854 3.11058,7.90112 3.59557,14.19139 1.42308,18.45719 -1.3082,2.56871 -5.22371,5.78671 -10.90994,8.96642 -1.37096,0.76664 -2.61626,1.39389 -2.76732,1.39389 -0.15107,0 -0.27467,-0.288 -0.27467,-0.63999 z M 117.47361,85.061114 c 0,-0.816263 -3.93207,-8.238128 -6.02459,-11.371548 -2.87254,-4.30144 -4.94343,-6.84498 -8.8163,-10.82849 -5.062385,-5.20701 -10.675735,-9.74251 -16.942005,-13.6889 -1.51785,-0.95591 -2.76315,-1.81546 -2.76733,-1.9101 -0.0208,-0.47147 6.67565,-5.38949 9.45833,-6.94639 4.57608,-2.56029 8.914395,-2.60408 13.819955,-0.13947 5.79585,2.91189 12.22414,8.46685 16.72567,14.45338 5.99182,7.96845 8.172,14.23084 6.33078,18.18469 -0.84804,1.82109 -3.88712,5.405799 -7.11102,8.387693 -4.01247,3.711282 -4.67349,4.257115 -4.67349,3.859135 z"
       id="path1" /></g></svg>
